<?xml version="1.0" encoding="UTF-8"?>
<svg id="svg873" xmlns="http://www.w3.org/2000/svg" viewBox="0 0 44.04 35.55">
  <defs>
    <style>
      .cls-1 {
        fill: #39516f;
      }
    </style>
  </defs>
  <path class="cls-1" d="M1.28,34.77c-.07-.02-.1-.14-.09-.21.16-3.58-.53-7.28.96-10.64,1.03-2.31,3.15-4.53,5.5-5.5.2-.08.48-.25.67-.16l2.08,2.08c0,.12-1.06.88-1.16,1.1-.06.13-.05.35.05.46l5.57,3.14v9.73H1.28Z"/>
  <path class="cls-1" d="M24.15,34.77h-8.45v-9.73l5.57-3.14c.09-.11.11-.33.05-.46-.1-.22-1.16-.98-1.16-1.1l2.18-2.16c3.73,1.29,6.5,4.8,7.02,8.7l-5.09,6.02c-.41.66-.32,1.15-.13,1.86Z"/>
  <path class="cls-1" d="M36.95,18.06v7.74s6.33,7.48,6.33,7.48c.46.65.03,1.56-.77,1.6h-16.84c-.84-.07-1.19-1-.71-1.66l6.26-7.36.02-7.77c-1.31-.26-1.3-1.98.09-2.12,1.75.17,3.99-.25,5.68.03,1.29.21,1.2,1.91-.06,2.06ZM35.99,17.52h-3.81v8.66l-6.3,7.44-.18.33h16.78l-.06-.21-6.43-7.55v-8.66Z"/>
  <polygon class="cls-1" points="18.8 18.06 15.32 24 11.78 18.06 18.8 18.06"/>
  <path class="cls-1" d="M14.28,23.88l-3.93-2.35c-.05-.21,1.28-.9,1-1.36l-1.89-1.94c.31-.02,1.58-.28,1.76-.12l3.06,5.77Z"/>
  <path class="cls-1" d="M21.12,18.23l-1.89,1.94c-.28.45,1.05,1.15,1,1.36l-3.93,2.35,3.06-5.77c.18-.16,1.45.1,1.76.12Z"/>
  <path class="cls-1" d="M32.09,11.76c1.12-.19,2.03.63,1.83,1.77-.31,1.78-3.24,1.53-2.94-.62.07-.48.63-1.07,1.11-1.15Z"/>
  <path class="cls-1" d="M35.44,8.92c1.27-.13,1.96,1.55.89,2.32s-2.41-.28-1.96-1.49c.16-.43.62-.78,1.08-.83Z"/>
  <path class="cls-1" d="M32.11,6.29c1.43-.29,1.92,1.57.75,2.06-1.56.65-2.14-1.78-.75-2.06Z"/>
  <path class="cls-1" d="M36.39,6.49c-.84.87-1.99-.61-1.01-1.22.84-.52,1.62.59,1.01,1.22Z"/>
  <path class="cls-1" d="M34.36,3.81c-.57.59-1.36-.42-.69-.83.57-.36,1.1.4.69.83Z"/>
  <path class="cls-1" d="M40.75,33.16h-13.24s-.12-.09-.06-.12l4.55-5.38h4.16s4.53,5.29,4.53,5.29l.06.21Z"/>
  <circle class="cls-1" cx="15.29" cy="9.68" r="7.24"/>
</svg>