<?xml version="1.0" encoding="UTF-8"?>
<svg id="svg873" xmlns="http://www.w3.org/2000/svg" viewBox="0 0 49.85 20.62">
  <defs>
    <style>
      .cls-1 {
        fill: #39516f;
      }
    </style>
  </defs>
  <g>
    <g>
      <path class="cls-1" d="M1.31,17.63c-.18-.03-.33-.23-.29-.41l.7-2.31c.01-.07.03-.4,0-.44-.02-.02-.04-.02-.06-.02-.17.51-.29,1.05-.47,1.55-.08.24-.2.44-.5.33-.32-.12-.22-.41-.15-.66.2-.7.42-1.4.69-2.07.13-.18.32-.33.54-.4.28-.08,1.19-.07,1.51-.04.58.04.8.37.97.87.22.63.39,1.28.59,1.92.02.28-.23.49-.5.38-.17-.07-.19-.2-.24-.36-.17-.49-.29-1-.46-1.49-.08-.16-.07.2-.09.25.18.86.52,1.68.74,2.53.03.15-.16.38-.31.38h-.43v1.8s-.03.1-.04.12c-.17.36-.72.26-.75-.15-.05-.51.06-1.13,0-1.63-.02-.15-.18-.16-.2-.02-.05.52.05,1.13,0,1.65-.03.33-.42.5-.67.27-.04-.04-.13-.18-.13-.23v-1.8c-.14-.02-.32.02-.45,0h0Z"/>
      <path class="cls-1" d="M2.63,11.14c1.09-.02,1.27,1.56.22,1.79-1.28.28-1.51-1.76-.22-1.79Z"/>
    </g>
    <g>
      <path class="cls-1" d="M6.26,17.63c-.18-.03-.33-.23-.29-.41l.7-2.31c.01-.07.03-.4,0-.44-.02-.02-.04-.02-.06-.02-.17.51-.29,1.05-.47,1.55-.08.24-.2.44-.5.33-.32-.12-.22-.41-.15-.66.2-.7.42-1.4.69-2.07.13-.18.32-.33.54-.4.28-.08,1.19-.07,1.51-.04.58.04.8.37.97.87.22.63.39,1.28.59,1.92.02.28-.23.49-.5.38-.17-.07-.19-.2-.24-.36-.17-.49-.29-1-.46-1.49-.08-.16-.07.2-.09.25.18.86.52,1.68.74,2.53.03.15-.16.38-.31.38h-.43v1.8s-.03.1-.04.12c-.17.36-.72.26-.75-.15-.05-.51.06-1.13,0-1.63-.02-.15-.18-.16-.2-.02-.05.52.05,1.13,0,1.65-.03.33-.42.5-.67.27-.04-.04-.13-.18-.13-.23v-1.8c-.14-.02-.32.02-.45,0h0Z"/>
      <path class="cls-1" d="M7.57,11.14c1.09-.02,1.27,1.56.22,1.79-1.28.28-1.51-1.76-.22-1.79Z"/>
    </g>
    <g>
      <path class="cls-1" d="M11.2,17.58c-.18-.03-.33-.23-.29-.41l.7-2.31c.01-.07.03-.4,0-.44-.02-.02-.04-.02-.06-.02-.17.51-.29,1.05-.47,1.55-.08.24-.2.44-.5.33-.32-.12-.22-.41-.15-.66.2-.7.42-1.4.69-2.07.13-.18.32-.33.54-.4.28-.08,1.19-.07,1.51-.04.58.04.8.37.97.87.22.63.39,1.28.59,1.92.02.28-.23.49-.5.38-.17-.07-.19-.2-.24-.36-.17-.49-.29-1-.46-1.49-.08-.16-.07.2-.09.25.18.86.52,1.68.74,2.53.03.15-.16.38-.31.38h-.43v1.8s-.03.1-.04.12c-.17.36-.72.26-.75-.15-.05-.51.06-1.13,0-1.63-.02-.15-.18-.16-.2-.02-.05.52.05,1.13,0,1.65-.03.33-.42.5-.67.27-.04-.04-.13-.18-.13-.23v-1.8c-.14-.02-.32.02-.45,0h0Z"/>
      <path class="cls-1" d="M12.51,11.09c1.09-.02,1.27,1.56.22,1.79-1.28.28-1.51-1.76-.22-1.79Z"/>
    </g>
    <g>
      <path class="cls-1" d="M16.14,17.63c-.18-.03-.33-.23-.29-.41l.7-2.31c.01-.07.03-.4,0-.44-.02-.02-.04-.02-.06-.02-.17.51-.29,1.05-.47,1.55-.08.24-.2.44-.5.33-.32-.12-.22-.41-.15-.66.2-.7.42-1.4.69-2.07.13-.18.32-.33.54-.4.28-.08,1.19-.07,1.51-.04.58.04.8.37.97.87.22.63.39,1.28.59,1.92.02.28-.23.49-.5.38-.17-.07-.19-.2-.24-.36-.17-.49-.29-1-.46-1.49-.08-.16-.07.2-.09.25.18.86.52,1.68.74,2.53.03.15-.16.38-.31.38h-.43v1.8s-.03.1-.04.12c-.17.36-.72.26-.75-.15-.05-.51.06-1.13,0-1.63-.02-.15-.18-.16-.2-.02-.05.52.05,1.13,0,1.65-.03.33-.42.5-.67.27-.04-.04-.13-.18-.13-.23v-1.8c-.14-.02-.32.02-.45,0h0Z"/>
      <path class="cls-1" d="M17.46,11.14c1.09-.02,1.27,1.56.22,1.79-1.28.28-1.51-1.76-.22-1.79Z"/>
    </g>
    <g>
      <path class="cls-1" d="M21.08,17.63c-.18-.03-.33-.23-.29-.41l.7-2.31c.01-.07.03-.4,0-.44-.02-.02-.04-.02-.06-.02-.17.51-.29,1.05-.47,1.55-.08.24-.2.44-.5.33-.32-.12-.22-.41-.15-.66.2-.7.42-1.4.69-2.07.13-.18.32-.33.54-.4.28-.08,1.19-.07,1.51-.04.58.04.8.37.97.87.22.63.39,1.28.59,1.92.02.28-.23.49-.5.38-.17-.07-.19-.2-.24-.36-.17-.49-.29-1-.46-1.49-.08-.16-.07.2-.09.25.18.86.52,1.68.74,2.53.03.15-.16.38-.31.38h-.43v1.8s-.03.1-.04.12c-.17.36-.72.26-.75-.15-.05-.51.06-1.13,0-1.63-.02-.15-.18-.16-.2-.02-.05.52.05,1.13,0,1.65-.03.33-.42.5-.67.27-.04-.04-.13-.18-.13-.23v-1.8c-.14-.02-.32.02-.45,0h0Z"/>
      <path class="cls-1" d="M22.4,11.14c1.09-.02,1.27,1.56.22,1.79-1.28.28-1.51-1.76-.22-1.79Z"/>
    </g>
    <g>
      <path class="cls-1" d="M26.02,17.68c-.18-.03-.33-.23-.29-.41l.7-2.31c.01-.07.03-.4,0-.44-.02-.02-.04-.02-.06-.02-.17.51-.29,1.05-.47,1.55-.08.24-.2.44-.5.33-.32-.12-.22-.41-.15-.66.2-.7.42-1.4.69-2.07.13-.18.32-.33.54-.4.28-.08,1.19-.07,1.51-.04.58.04.8.37.97.87.22.63.39,1.28.59,1.92.02.28-.23.49-.5.38-.17-.07-.19-.2-.24-.36-.17-.49-.29-1-.46-1.49-.08-.16-.07.2-.09.25.18.86.52,1.68.74,2.53.03.15-.16.38-.31.38h-.43v1.8s-.03.1-.04.12c-.17.36-.72.26-.75-.15-.05-.51.06-1.13,0-1.63-.02-.15-.18-.16-.2-.02-.05.52.05,1.13,0,1.65-.03.33-.42.5-.67.27-.04-.04-.13-.18-.13-.23v-1.8c-.14-.02-.32.02-.45,0h0Z"/>
      <path class="cls-1" d="M27.34,11.2c1.09-.02,1.27,1.56.22,1.79-1.28.28-1.51-1.76-.22-1.79Z"/>
    </g>
    <g>
      <path class="cls-1" d="M30.97,17.68c-.18-.03-.33-.23-.29-.41l.7-2.31c.01-.07.03-.4,0-.44-.02-.02-.04-.02-.06-.02-.17.51-.29,1.05-.47,1.55-.08.24-.2.44-.5.33-.32-.12-.22-.41-.15-.66.2-.7.42-1.4.69-2.07.13-.18.32-.33.54-.4.28-.08,1.19-.07,1.51-.04.58.04.8.37.97.87.22.63.39,1.28.59,1.92.02.28-.23.49-.5.38-.17-.07-.19-.2-.24-.36-.17-.49-.29-1-.46-1.49-.08-.16-.07.2-.09.25.18.86.52,1.68.74,2.53.03.15-.16.38-.31.38h-.43v1.8s-.03.1-.04.12c-.17.36-.72.26-.75-.15-.05-.51.06-1.13,0-1.63-.02-.15-.18-.16-.2-.02-.05.52.05,1.13,0,1.65-.03.33-.42.5-.67.27-.04-.04-.13-.18-.13-.23v-1.8c-.14-.02-.32.02-.45,0h0Z"/>
      <path class="cls-1" d="M32.28,11.2c1.09-.02,1.27,1.56.22,1.79-1.28.28-1.51-1.76-.22-1.79Z"/>
    </g>
    <g>
      <path class="cls-1" d="M35.91,17.68c-.18-.03-.33-.23-.29-.41l.7-2.31c.01-.07.03-.4,0-.44-.02-.02-.04-.02-.06-.02-.17.51-.29,1.05-.47,1.55-.08.24-.2.44-.5.33-.32-.12-.22-.41-.15-.66.2-.7.42-1.4.69-2.07.13-.18.32-.33.54-.4.28-.08,1.19-.07,1.51-.04.58.04.8.37.97.87.22.63.39,1.28.59,1.92.02.28-.23.49-.5.38-.17-.07-.19-.2-.24-.36-.17-.49-.29-1-.46-1.49-.08-.16-.07.2-.09.25.18.86.52,1.68.74,2.53.03.15-.16.38-.31.38h-.43v1.8s-.03.1-.04.12c-.17.36-.72.26-.75-.15-.05-.51.06-1.13,0-1.63-.02-.15-.18-.16-.2-.02-.05.52.05,1.13,0,1.65-.03.33-.42.5-.67.27-.04-.04-.13-.18-.13-.23v-1.8c-.14-.02-.32.02-.45,0h0Z"/>
      <path class="cls-1" d="M37.22,11.2c1.09-.02,1.27,1.56.22,1.79-1.28.28-1.51-1.76-.22-1.79Z"/>
    </g>
    <g>
      <path class="cls-1" d="M40.85,17.58c-.18-.03-.33-.23-.29-.41l.7-2.31c.01-.07.03-.4,0-.44-.02-.02-.04-.02-.06-.02-.17.51-.29,1.05-.47,1.55-.08.24-.2.44-.5.33-.32-.12-.22-.41-.15-.66.2-.7.42-1.4.69-2.07.13-.18.32-.33.54-.4.28-.08,1.19-.07,1.51-.04.58.04.8.37.97.87.22.63.39,1.28.59,1.92.02.28-.23.49-.5.38-.17-.07-.19-.2-.24-.36-.17-.49-.29-1-.46-1.49-.08-.16-.07.2-.09.25.18.86.52,1.68.74,2.53.03.15-.16.38-.31.38h-.43v1.8s-.03.1-.04.12c-.17.36-.72.26-.75-.15-.05-.51.06-1.13,0-1.63-.02-.15-.18-.16-.2-.02-.05.52.05,1.13,0,1.65-.03.33-.42.5-.67.27-.04-.04-.13-.18-.13-.23v-1.8c-.14-.02-.32.02-.45,0h0Z"/>
      <path class="cls-1" d="M42.16,11.09c1.09-.02,1.27,1.56.22,1.79-1.28.28-1.51-1.76-.22-1.79Z"/>
    </g>
    <g>
      <path class="cls-1" d="M45.79,17.58c-.18-.03-.33-.23-.29-.41l.7-2.31c.01-.07.03-.4,0-.44-.02-.02-.04-.02-.06-.02-.17.51-.29,1.05-.47,1.55-.08.24-.2.44-.5.33-.32-.12-.22-.41-.15-.66.2-.7.42-1.4.69-2.07.13-.18.32-.33.54-.4.28-.08,1.19-.07,1.51-.04.58.04.8.37.97.87.22.63.39,1.28.59,1.92.02.28-.23.49-.5.38-.17-.07-.19-.2-.24-.36-.17-.49-.29-1-.46-1.49-.08-.16-.07.2-.09.25.18.86.52,1.68.74,2.53.03.15-.16.38-.31.38h-.43v1.8s-.03.1-.04.12c-.17.36-.72.26-.75-.15-.05-.51.06-1.13,0-1.63-.02-.15-.18-.16-.2-.02-.05.52.05,1.13,0,1.65-.03.33-.42.5-.67.27-.04-.04-.13-.18-.13-.23v-1.8c-.14-.02-.32.02-.45,0h0Z"/>
      <path class="cls-1" d="M47.11,11.09c1.09-.02,1.27,1.56.22,1.79-1.28.28-1.51-1.76-.22-1.79Z"/>
    </g>
  </g>
  <g>
    <path class="cls-1" d="M3.35,9.49h-.24c-.13-.05-.26-.14-.32-.27,0-.02-.04-.12-.04-.13v-2.93c0-.05-.14-.05-.14,0v2.93s-.04.12-.06.15c-.08.15-.21.22-.37.26h-.12c-.21-.05-.38-.19-.41-.42v-5.04c-.03-.08-.14-.05-.14-.02v2.15c0,.06-.07.17-.12.2-.19.15-.44.07-.51-.16v-2.69c.04-.38.33-.66.72-.69.7-.05,1.47.04,2.18,0,.36.04.64.33.68.69v2.67c-.06.23-.31.33-.5.18-.05-.04-.13-.15-.13-.21v-2.15s-.1-.06-.13.02v5.05c-.04.2-.18.33-.37.4h0Z"/>
    <path class="cls-1" d="M2.84.77c.7.09.96,1.06.41,1.53-.67.57-1.67-.11-1.38-.96.09-.27.38-.53.67-.57.07,0,.24,0,.31,0h0Z"/>
  </g>
  <g>
    <path class="cls-1" d="M8.26,9.49h-.24c-.13-.05-.26-.14-.32-.27,0-.02-.04-.12-.04-.13v-2.93c0-.05-.14-.05-.14,0v2.93s-.04.12-.06.15c-.08.15-.21.22-.37.26h-.12c-.21-.05-.38-.19-.41-.42v-5.04c-.03-.08-.14-.05-.14-.02v2.15c0,.06-.07.17-.12.2-.19.15-.44.07-.51-.16v-2.69c.04-.38.33-.66.72-.69.7-.05,1.47.04,2.18,0,.36.04.64.33.68.69v2.67c-.06.23-.31.33-.5.18-.05-.04-.13-.15-.13-.21v-2.15s-.1-.06-.13.02v5.05c-.04.2-.18.33-.37.4h0Z"/>
    <path class="cls-1" d="M7.75.77c.7.09.96,1.06.41,1.53-.67.57-1.67-.11-1.38-.96.09-.27.38-.53.67-.57.07,0,.24,0,.31,0h0Z"/>
  </g>
  <g>
    <path class="cls-1" d="M13.2,9.49h-.24c-.13-.05-.26-.14-.32-.27,0-.02-.04-.12-.04-.13v-2.93c0-.05-.14-.05-.14,0v2.93s-.04.12-.06.15c-.08.15-.21.22-.37.26h-.12c-.21-.05-.38-.19-.41-.42v-5.04c-.03-.08-.14-.05-.14-.02v2.15c0,.06-.07.17-.12.2-.19.15-.44.07-.51-.16v-2.69c.04-.38.33-.66.72-.69.7-.05,1.47.04,2.18,0,.36.04.64.33.68.69v2.67c-.06.23-.31.33-.5.18-.05-.04-.13-.15-.13-.21v-2.15s-.1-.06-.13.02v5.05c-.04.2-.18.33-.37.4h0Z"/>
    <path class="cls-1" d="M12.69.77c.7.09.96,1.06.41,1.53-.67.57-1.67-.11-1.38-.96.09-.27.38-.53.67-.57.07,0,.24,0,.31,0h0Z"/>
  </g>
  <g>
    <path class="cls-1" d="M18.15,9.49h-.24c-.13-.05-.26-.14-.32-.27,0-.02-.04-.12-.04-.13v-2.93c0-.05-.14-.05-.14,0v2.93s-.04.12-.06.15c-.08.15-.21.22-.37.26h-.12c-.21-.05-.38-.19-.41-.42v-5.04c-.03-.08-.14-.05-.14-.02v2.15c0,.06-.07.17-.12.2-.19.15-.44.07-.51-.16v-2.69c.04-.38.33-.66.72-.69.7-.05,1.47.04,2.18,0,.36.04.64.33.68.69v2.67c-.06.23-.31.33-.5.18-.05-.04-.13-.15-.13-.21v-2.15s-.1-.06-.13.02v5.05c-.04.2-.18.33-.37.4h0Z"/>
    <path class="cls-1" d="M17.63.77c.7.09.96,1.06.41,1.53-.67.57-1.67-.11-1.38-.96.09-.27.38-.53.67-.57.07,0,.24,0,.31,0h0Z"/>
  </g>
  <g>
    <path class="cls-1" d="M23.09,9.49h-.24c-.13-.05-.26-.14-.32-.27,0-.02-.04-.12-.04-.13v-2.93c0-.05-.14-.05-.14,0v2.93s-.04.12-.06.15c-.08.15-.21.22-.37.26h-.12c-.21-.05-.38-.19-.41-.42v-5.04c-.03-.08-.14-.05-.14-.02v2.15c0,.06-.07.17-.12.2-.19.15-.44.07-.51-.16v-2.69c.04-.38.33-.66.72-.69.7-.05,1.47.04,2.18,0,.36.04.64.33.68.69v2.67c-.06.23-.31.33-.5.18-.05-.04-.13-.15-.13-.21v-2.15s-.1-.06-.13.02v5.05c-.04.2-.18.33-.37.4h0Z"/>
    <path class="cls-1" d="M22.58.77c.7.09.96,1.06.41,1.53-.67.57-1.67-.11-1.38-.96.09-.27.38-.53.67-.57.07,0,.24,0,.31,0h0Z"/>
  </g>
</svg>