<?xml version="1.0" encoding="UTF-8"?>
<svg id="Layer_1" data-name="Layer 1" xmlns="http://www.w3.org/2000/svg" viewBox="0 0 384 401.59">
  <defs>
    <style>
      .cls-1 {
        fill: #39516f;
        stroke: #39516f;
        stroke-miterlimit: 10;
      }
    </style>
  </defs>
  <path class="cls-1" d="M221.25,393.17h-10.5c-5.66-2.41-11.26-6.16-13.88-12-.31-.7-1.87-5.33-1.87-5.63v-129c0-2.29-6-2.29-6,0v129c0,1-1.97,5.17-2.61,6.39-3.48,6.64-9.07,9.48-16.14,11.24h-5.25c-9.27-2.42-16.8-8.39-17.99-18.38l-.35-221.65c-1.16-3.54-5.66-2.26-5.66-1.09v94.5c0,2.5-3.2,7.36-5.24,9.01-8.27,6.72-19.24,2.92-22.35-6.93l-.2-118.36c2.03-16.79,14.89-29.19,31.87-30.38,31.02-2.18,64.65,1.62,95.94.13,15.7,1.92,28.03,14.53,29.74,30.26l-.07,117.73c-2.6,10.04-13.55,14.31-22.07,7.92-2.2-1.65-5.63-6.73-5.63-9.37v-94.5c0-1.17-4.5-2.45-5.66,1.09l-.34,222.41c-1.59,8.95-7.43,14.66-15.75,17.62Z"/>
  <path class="cls-1" d="M198.75,9.17c31,3.94,42.25,46.66,18.01,67.13-29.53,24.94-73.44-4.96-60.79-42.04,4.01-11.75,16.66-23.49,29.28-25.1,2.93-.37,10.57-.37,13.5,0Z"/>
</svg>