<?xml version="1.0" encoding="UTF-8"?>
<svg id="Layer_1" data-name="Layer 1" xmlns="http://www.w3.org/2000/svg" viewBox="0 0 122.04 125.62">
  <defs>
    <style>
      .cls-1 {
        fill: #39516f;
        fill-rule: evenodd;
        stroke-miterlimit: 10;
      }

      .cls-1, .cls-2 {
        stroke: #39516f;
      }

      .cls-2 {
        fill: none;
        stroke-linecap: round;
        stroke-linejoin: round;
        stroke-width: 7.82px;
      }
    </style>
  </defs>
  <path class="cls-2" d="M61.02,8.1c14.51,0,28.42,5.76,38.68,16.02,10.26,10.26,16.02,24.17,16.02,38.68s-5.76,28.42-16.02,38.68c-10.26,10.26-24.17,16.02-38.68,16.02s-28.42-5.76-38.68-16.02c-10.26-10.26-16.02-24.17-16.02-38.68,0-14.51,5.76-28.42,16.02-38.68,10.26-10.26,24.17-16.02,38.68-16.02Z"/>
  <path class="cls-1" d="M52.53,42.31c-.87,0-1.73.22-2.49.64-.78.4-1.44,1-1.9,1.74-.46.74-.72,1.59-.73,2.47v31.31c.01.87.27,1.73.73,2.47.46.74,1.12,1.34,1.9,1.74.78.43,1.65.65,2.54.64.89,0,1.76-.25,2.52-.69l25.42-15.66c.78-.39,1.44-1,1.9-1.74.46-.74.7-1.6.7-2.48,0-.87-.24-1.73-.71-2.48-.46-.74-1.12-1.35-1.91-1.74l-25.42-15.54-.05-.03c-.77-.43-1.64-.66-2.52-.66Z"/>
</svg>