<?xml version="1.0" encoding="UTF-8"?>
<svg id="Layer_1" data-name="Layer 1" xmlns="http://www.w3.org/2000/svg" viewBox="0 0 138.64 246.46">
  <defs>
    <style>
      .cls-1 {
        fill: #39516f;
      }
    </style>
  </defs>
  <path class="cls-1" d="M41.22,168.88c-3.77-.63-6.89-4.83-6.09-8.69l14.64-48.42c.31-1.47.57-8.45-.01-9.3-.35-.5-.78-.38-1.3-.36-3.49,10.67-6.16,22.01-9.92,32.56-1.76,4.94-4.28,9.24-10.47,6.94-6.8-2.52-4.54-8.69-3.08-13.81,4.17-14.6,8.89-29.38,14.41-43.45,2.76-3.86,6.69-7.01,11.28-8.38,5.93-1.76,24.89-1.39,31.73-.94,12.2.79,16.71,7.79,20.3,18.28,4.53,13.26,8.17,26.86,12.47,40.2.5,5.88-4.8,10.34-10.49,7.89-3.55-1.53-3.91-4.29-5.06-7.56-3.58-10.23-6.11-20.92-9.61-31.19-1.74-3.45-1.47,4.13-1.91,5.22,3.76,18.03,10.85,35.27,15.59,53.09.55,3.19-3.38,7.92-6.47,7.92h-9.09v37.65c0,.25-.71,2.02-.91,2.43-3.55,7.58-15.03,5.41-15.8-3.16-.96-10.75,1.24-23.6.02-34.15-.36-3.12-3.76-3.42-4.09-.37-1.15,10.8,1,23.6.02,34.52-.63,6.96-8.84,10.42-13.98,5.6-.87-.82-2.73-3.74-2.73-4.88v-37.65c-2.87-.34-6.72.46-9.46,0Z"/>
  <path class="cls-1" d="M68.79,32.83c22.75-.49,26.6,32.81,4.54,37.58-26.94,5.82-31.72-36.99-4.54-37.58Z"/>
</svg>