<?xml version="1.0" encoding="UTF-8" standalone="no"?><!DOCTYPE svg PUBLIC "-//W3C//DTD SVG 1.1//EN" "http://www.w3.org/Graphics/SVG/1.1/DTD/svg11.dtd"><svg width="100%" height="100%" viewBox="0 0 1140 1065" version="1.1" xmlns="http://www.w3.org/2000/svg" xmlns:xlink="http://www.w3.org/1999/xlink" xml:space="preserve" xmlns:serif="http://www.serif.com/" style="fill-rule:evenodd;clip-rule:evenodd;stroke-linejoin:round;stroke-miterlimit:2;"><g><path d="M826.912,423.504c16.782,-23.898 51.306,-52.903 79.612,-61.225c29.439,-8.556 106.014,10.531 119.801,-21.547c17.166,-39.913 -68.797,-51.387 -94.089,-51.655c13.961,-27.196 41.772,-106.373 -8.482,-111.409c-34.255,-3.412 -39.952,62.966 -48.416,83.488c-41.795,99.866 -149.909,150.257 -237.225,66.786c-28.978,-27.988 -27.524,-95.432 -7.207,-128.788c25.584,-41.785 111.538,-52.967 115.549,-92.459c6.2,-58.86 -134.654,10.676 -145.167,41.805c-27.13,-33.842 62.039,-136.599 -0.859,-142.083c-12.374,-1.193 -44.704,47.246 -54.032,58.868c-18.305,-14.179 -26.901,-63.755 -57.521,-51.838c-61.622,24.327 29.517,119.621 43.602,147.002c27.692,53.754 16.507,134.565 -38.197,164.882c-68.472,37.867 -116.618,26.23 -152.258,-47.3c-22.663,-47.166 6.886,-125.315 2.588,-130.388c-23.961,-28.536 -42.714,0.963 -41.269,27.897c-6.389,0.277 -27.289,-86.542 -63.79,-59.07c-33.585,25.138 21.386,103.348 23.773,134.177c-1.211,5.239 -79.304,-28.644 -105.003,4.503c-33.753,43.536 49.252,44.325 69.706,49.398c47.269,11.752 84.194,36.23 108.667,79.42c30.821,53.803 -1.888,63.309 -17.449,112.384c-10.938,34.126 4.344,65.281 -37.925,85.277c-23.976,11.519 -68.628,8.446 -91.577,-5.053c-24.938,-14.404 -83.249,-79.524 -109.232,-59.898c-34.099,26.005 31.026,87.851 55.449,103.124c-27.277,6.585 -122.884,57.8 -98.277,92.855c27.425,38.978 75.43,-26.618 104.646,-29.17c-17.44,33.527 -48.144,82.117 4.527,100.582c60.103,-39.12 45.027,-137.74 139.814,-129.88c48.268,4.13 60.693,49.382 85.943,83.197c8.707,11.651 24.236,19.402 34.401,33.454c27.812,38.485 -2.561,89.708 -29.823,118.951c-25.356,27.391 -135.596,61.728 -68.143,95.447c24.098,12.017 75.541,-10.215 88.816,-33.669c8.766,23.417 40.044,111.15 76.635,85.808c32.667,-22.526 -11.812,-75.661 -11.533,-116.464c0.965,-107.258 62.258,-79.895 132.706,-76.799c12.758,0.7 27.345,-3.201 41.388,-4.362c2.524,-1.212 5.158,-1.546 7.554,-2.387c2.277,-1.715 4.934,-3.302 7.961,-4.756c3.786,-1.82 7.312,-2.89 10.7,-3.59c21.968,-11.175 42.842,-24.619 64.691,-36.047c4.541,-2.181 9.082,-4.362 13.627,-6.548c2.666,-2.208 5.451,-4.17 8.985,-5.867c0.755,-0.365 1.272,-1.234 2.159,-1.971c6.754,-7.279 14.514,-15.044 21.693,-25.323c39.737,-57.585 77.265,-157.266 166.205,-112.449c55.399,28.022 41.009,66.602 67.078,88.538c55.852,46.427 59.423,-74.806 15.794,-95.136c5.776,-8.675 15.506,1.244 26.188,-1.098c24.25,-5.13 88.414,-31.922 70.631,-63.113c-22.045,-38.772 -66.561,12.109 -100.591,2.694c18.583,-18.863 95.872,-114.671 28.794,-117.214c-22.402,-0.727 -61.192,107.323 -142.948,106.555c-74.614,-0.787 -121.448,-78.871 -79.036,-139.296l0.366,0.76Z" style="fill:url(#_Linear1);fill-rule:nonzero;"/><path d="M655.439,747.931c87.641,-42.106 124.552,-147.284 82.446,-234.925c-42.106,-87.641 -147.288,-124.553 -234.925,-82.447c-87.641,42.106 -124.552,147.288 -82.446,234.93c42.106,87.636 147.288,124.552 234.925,82.442Z" style="fill:#af8abd;fill-rule:nonzero;"/></g><defs><linearGradient id="_Linear1" x1="0" y1="0" x2="1" y2="0" gradientUnits="userSpaceOnUse" gradientTransform="matrix(-592.454,-1233.13,1233.13,-592.454,935.071,1356.58)"><stop offset="0" style="stop-color:#f1f1f1;stop-opacity:1"/><stop offset="0.2" style="stop-color:#f1f1f1;stop-opacity:1"/><stop offset="0.39" style="stop-color:#8174a0;stop-opacity:1"/><stop offset="1" style="stop-color:#8174a0;stop-opacity:1"/></linearGradient></defs></svg>